<svg viewBox="0 0 1024 1056.923" xmlns="http://www.w3.org/2000/svg"><path d="M522.705 21.333c160.076.185 289.793 129.902 289.978 289.96v310.942c-.08 61.92-50.254 112.095-112.167 112.175H344.9c-61.92-.08-112.094-50.254-112.174-112.167V311.31c.185-160.075 129.902-289.792 289.96-289.977h.018zm177.804 666.53c36.224-.052 65.575-29.403 65.628-65.623V311.31c0-134.443-108.99-243.432-243.433-243.432S279.272 176.868 279.272 311.31v310.925c.053 36.225 29.404 65.576 65.624 65.63h.005zM457.075 577.552H410.53V266.628h46.546zm177.804 0h-46.545V266.628h46.545zM410.53 687.865h224.35V933.16c0 61.95-50.222 112.174-112.175 112.174S410.53 995.112 410.53 933.16zm177.805 46.545H457.077v198.748c0 36.246 29.383 65.63 65.63 65.63s65.628-29.384 65.628-65.63z"/></svg>